<svg width="200" height="200" version="1.1" xmlns="http://www.w3.org/2000/svg" desc="Created with imagetracer.js version 0.2.1" ><path fill="rgb(255,255,255)" stroke="rgb(255,255,255)" stroke-width="1" opacity="0.5058823529411764" d="M 14.5 5 L 18 5.5 Q 9.9 6.4 7 12.5 L 5.5 18 L 5 14.5 L 9.5 8 L 14.5 5 Z " /><path fill="rgb(255,255,255)" stroke="rgb(255,255,255)" stroke-width="1" opacity="0.5058823529411764" d="M 22.5 5 L 25 5.5 L 22.5 6 L 22.5 5 Z " /><path fill="rgb(255,255,255)" stroke="rgb(255,255,255)" stroke-width="1" opacity="0.5058823529411764" d="M 175.5 5 L 178 5.5 L 175.5 6 L 175.5 5 Z " /><path fill="rgb(255,255,255)" stroke="rgb(255,255,255)" stroke-width="1" opacity="0.5058823529411764" d="M 183.5 5 Q 189.3 5.7 192 9.5 Q 195.6 11.4 195 17.5 L 194 17.5 Q 193.6 9.4 187.5 7 L 183.5 6 L 183.5 5 Z " /><path fill="rgb(255,255,255)" stroke="rgb(255,255,255)" stroke-width="1" opacity="0.5058823529411764" d="M 26.5 6 L 100.5 78 L 173.5 6 L 173.5 7 L 99.5 79 L 26.5 6 Z " /><path fill="rgb(255,255,255)" stroke="rgb(255,255,255)" stroke-width="1" opacity="0.5058823529411764" d="M 5.5 22 L 6 24.5 L 5 24.5 L 5.5 22 Z " /><path fill="rgb(255,255,255)" stroke="rgb(255,255,255)" stroke-width="1" opacity="0.5058823529411764" d="M 194.5 22 L 195 24.5 L 194 24.5 L 194.5 22 Z " /><path fill="rgb(255,255,255)" stroke="rgb(255,255,255)" stroke-width="1" opacity="0.5058823529411764" d="M 6.5 26 L 79 100.5 L 6.5 174 L 6 172.5 L 78 99.5 L 6 27.5 L 6.5 26 Z " /><path fill="rgb(255,255,255)" stroke="rgb(255,255,255)" stroke-width="1" opacity="0.5058823529411764" d="M 193.5 26 L 194 27.5 L 122 100.5 L 193 171.5 Q 196.5 175.5 195 184.5 L 187.5 194 L 183.5 195 L 183.5 194 Q 189.9 193.4 192 188.5 Q 195.5 184.5 194 175.5 L 192 171.5 L 121 99.5 L 193.5 26 Z " /><path fill="rgb(255,255,255)" stroke="rgb(255,255,255)" stroke-width="1" opacity="0.5058823529411764" d="M 99.5 121 L 172.5 193 L 177 194.5 L 174.5 195 L 99.5 122 L 27.5 194 L 22.5 195 L 22.5 194 L 27.5 193 L 99.5 121 Z " /><path fill="rgb(255,255,255)" stroke="rgb(255,255,255)" stroke-width="1" opacity="0.5058823529411764" d="M 5.5 175 L 6 177.5 L 5 177.5 L 5.5 175 Z " /><path fill="rgb(255,255,255)" stroke="rgb(255,255,255)" stroke-width="1" opacity="0.5058823529411764" d="M 5.5 183 Q 6.9 190.1 12.5 193 L 17 194.5 L 14.5 195 L 8 190.5 Q 3.8 187.9 5.5 183 Z " /><path fill="rgb(0,0,0)" stroke="rgb(0,0,0)" stroke-width="1" opacity="0" d="M 0 0 L 200 0 L 200 200 L 0 200 L 0 0 Z M 15 5 L 10 8 L 5 15 Q 4 23 6 28 L 78 100 L 6 173 L 5 176 Q 3 186 8 191 L 15 195 L 26 195 L 28 194 L 100 122 L 175 195 L 186 195 L 188 194 L 195 185 Q 197 176 193 172 L 122 101 L 194 28 L 195 25 Q 197 14 192 10 L 186 5 Q 177 4 173 6 L 101 78 L 28 6 Q 23 4 15 5 Z " /><path fill="rgb(255,255,255)" stroke="rgb(255,255,255)" stroke-width="1" opacity="0.996078431372549" d="M 18.5 5 L 22 5.5 L 18.5 6 L 18.5 5 Z " /><path fill="rgb(255,255,255)" stroke="rgb(255,255,255)" stroke-width="1" opacity="0.996078431372549" d="M 178.5 5 L 183 5.5 L 178.5 6 L 178.5 5 Z " /><path fill="rgb(255,255,255)" stroke="rgb(255,255,255)" stroke-width="1" opacity="0.996078431372549" d="M 27.5 7 L 28.5 9 L 27.5 7 Z " /><path fill="rgb(255,255,255)" stroke="rgb(255,255,255)" stroke-width="1" opacity="0.996078431372549" d="M 172.5 7 L 171.5 9 L 172.5 7 Z " /><path fill="rgb(255,255,255)" stroke="rgb(255,255,255)" stroke-width="1" opacity="0.996078431372549" d="M 5.5 18 L 6 21.5 L 5 21.5 L 5.5 18 Z " /><path fill="rgb(255,255,255)" stroke="rgb(255,255,255)" stroke-width="1" opacity="0.996078431372549" d="M 194.5 18 L 195 21.5 L 194 21.5 L 194.5 18 Z " /><path fill="rgb(255,255,255)" stroke="rgb(255,255,255)" stroke-width="1" opacity="0.996078431372549" d="M 7.5 27 L 8.5 29 L 7.5 27 Z " /><path fill="rgb(255,255,255)" stroke="rgb(255,255,255)" stroke-width="1" opacity="0.996078431372549" d="M 192.5 27 L 191.5 29 L 192.5 27 Z " /><path fill="rgb(255,255,255)" stroke="rgb(255,255,255)" stroke-width="1" opacity="0.996078431372549" d="M 150.5 130 L 191.5 172 L 150.5 130 Z " /><path fill="rgb(255,255,255)" stroke="rgb(255,255,255)" stroke-width="1" opacity="0.996078431372549" d="M 71.5 148 L 27.5 193 L 71.5 148 Z " /><path fill="rgb(255,255,255)" stroke="rgb(255,255,255)" stroke-width="1" opacity="0.996078431372549" d="M 8.5 171 L 7.5 173 L 8.5 171 Z " /><path fill="rgb(255,255,255)" stroke="rgb(255,255,255)" stroke-width="1" opacity="0.996078431372549" d="M 5.5 178 L 6 182.5 L 5 182.5 L 5.5 178 Z " /><path fill="rgb(255,255,255)" stroke="rgb(255,255,255)" stroke-width="1" opacity="0.996078431372549" d="M 171.5 191 L 172.5 193 L 171.5 191 Z " /><path fill="rgb(255,255,255)" stroke="rgb(255,255,255)" stroke-width="1" opacity="0.996078431372549" d="M 188.5 191 L 187.5 193 L 188.5 191 Z " /><path fill="rgb(255,255,255)" stroke="rgb(255,255,255)" stroke-width="1" opacity="0.996078431372549" d="M 17.5 194 L 22 194.5 L 17.5 195 L 17.5 194 Z " /><path fill="rgb(255,255,255)" stroke="rgb(255,255,255)" stroke-width="1" opacity="0.996078431372549" d="M 177.5 194 L 183 194.5 L 177.5 195 L 177.5 194 Z " /><path fill="rgb(255,255,255)" stroke="rgb(255,255,255)" stroke-width="1" opacity="1" d="M 15.5 6 Q 25.7 4.3 29.5 9 L 100.5 79 L 170.5 9 Q 174.3 4.3 184.5 6 L 192 11.5 Q 195.5 15.5 194 24.5 L 191 29.5 L 121 100.5 L 192 172.5 Q 195.2 175.8 194 183.5 L 189.5 191 Q 185.7 195.7 175.5 194 L 170.5 191 L 99.5 121 L 26.5 193 Q 23 195.5 15.5 194 L 8 188.5 Q 4.5 184.5 6 175.5 L 9 170.5 L 79 99.5 L 9 29.5 Q 4.3 25.7 6 15.5 L 11.5 8 L 15.5 6 Z " /></svg>